<?xml version="1.0" encoding="utf-8"?>
<!-- Generator: Adobe Illustrator 28.0.0, SVG Export Plug-In . SVG Version: 6.00 Build 0)  -->
<svg version="1.1" id="Слой_1" xmlns="http://www.w3.org/2000/svg" xmlns:xlink="http://www.w3.org/1999/xlink" x="0px" y="0px"
	 viewBox="0 0 828.3913574 1000" enable-background="new 0 0 828.3913574 1000" xml:space="preserve">
<g>
	<path fill="#E4000D" d="M621.9075317,621.1331787c52.8972778-53.1037598,85.6321411-126.2722778,85.6321411-206.9588623
		c0-161.7627258-131.5884399-293.3582153-293.3487549-293.3582153c-161.7175751,0-293.3582153,131.5955048-293.3582153,293.3582153
		c0,80.6865845,33.3359451,154.5724487,85.6772232,206.9588623c6.164093,6.1641235,14.6987915,10.1808472,24.1670227,10.1808472
		c18.5825195,0,33.6613617-15.0836182,33.6613617-33.6708984c0-9.6296997-4.0975037-18.2475586-10.5157623-24.378418
		c-40.5570679-40.8895874-65.6504822-97.1193542-65.6504822-159.0903931
		c0-124.6309204,101.3879242-226.0639954,226.0188446-226.0639954c124.6665649,0,226.097229,101.433075,226.097229,226.0639954
		c0,62.3106995-25.3901367,118.789856-66.2822876,159.7246704L280.9825439,866.8795166l47.6120605,47.5667725
		L621.9075317,621.1331787z M178.775116,683.0733643c0-9.463501-4.0500031-18.0813599-10.3042145-24.378418
		c-62.2752228-62.265625-101.1315308-149.0830078-101.1315308-244.5182495
		c0-191.2410736,155.6295013-346.8777161,346.8348999-346.8777161c191.2814636,0,346.8777161,155.6366272,346.8777161,346.8777161
		c0,95.646637-38.9109497,182.3761597-101.7323608,245.1975708L366.3937378,952.2645874L414.1291809,1000L707.230835,706.8579102
		c74.8621826-74.9453125,121.1605225-178.4021606,121.1605225-292.6812134C828.3913574,185.4166565,642.9748535,0,414.1742859,0
		C185.4522705,0,0,185.4166565,0,414.1766968c0,114.1911621,46.4218597,217.9022217,120.939743,292.4698486
		c6.3848495,6.335083,14.7414093,10.0525513,24.1668701,10.0525513
		C163.6986389,716.6990967,178.775116,701.6202393,178.775116,683.0733643z M586.7498779,414.155304
		c0-95.1335754-77.4420166-172.5278931-172.5328369-172.5278931c-95.1430664,0-172.5326233,77.3943176-172.5326233,172.5278931
		c0,95.1407166,77.3895569,172.5754089,172.5326233,172.5754089
		C509.3078613,586.7307129,586.7498779,509.2960205,586.7498779,414.155304z M308.9810181,414.155304
		c0-58.0041504,47.1891174-105.2312622,105.2360229-105.2312622c58.0041809,0,105.1932983,47.2271118,105.1932983,105.2312622
		c0,58.0492859-47.1891174,105.2811584-105.1932983,105.2811584
		C356.1701355,519.4364624,308.9810181,472.2045898,308.9810181,414.155304z"/>
</g>
</svg>
